<?xml version="1.0" encoding="UTF-8"?>
<svg width="19px" height="20px" viewBox="0 0 19 20" version="1.1" xmlns="http://www.w3.org/2000/svg" xmlns:xlink="http://www.w3.org/1999/xlink">
    <!-- Generator: Sketch 52.5 (67469) - http://www.bohemiancoding.com/sketch -->
    <title>contact</title>
    <desc>Created with Sketch.</desc>
    <g id="page" stroke="none" stroke-width="1" fill="none" fill-rule="evenodd">
        <g id="03setting" transform="translate(-33.000000, -559.000000)" fill="#493B32">
            <g id="contact" transform="translate(32.000000, 557.000000)">
                <g id="矩形-+-矩形备份-7-+-直线-+-直线备份蒙版">
                    <path d="M14.3615421,16.1484235 L13.2909503,20.29673 C13.1231427,20.9469471 12.2509868,21.0658665 11.9152258,20.4843114 L8.88115239,15.2291421 L3.29493277,16.4973257 C2.61362974,16.6519951 2.10952412,15.8731001 2.52966495,15.3149083 L13.6384762,0.555933693 C13.9732063,0.111217054 14.6586767,0.173235486 14.9081524,0.670808575 L22.962944,16.7358864 C23.2448133,17.2980676 22.7512166,17.9366623 22.136147,17.8055617 L14.3615421,16.1484235 Z M12.8931674,15.835443 L10.6924262,15.3663603 L12.2969814,18.1455316 L12.8931674,15.835443 Z M14.3671891,2.93856189 L10.6036533,13.8137431 L20.9226217,16.0132063 L14.3671891,2.93856189 Z M9.074009,13.6471918 L11.9776478,5.25678445 L4.95923374,14.5813281 L9.074009,13.6471918 Z" id="形状结合" fill-rule="nonzero" transform="translate(12.710204, 10.558226) rotate(30.000000) translate(-12.710204, -10.558226) "></path>
                </g>
            </g>
        </g>
    </g>
</svg>