<?xml version="1.0" encoding="UTF-8"?>
<svg width="19px" height="19px" viewBox="0 0 19 19" version="1.1" xmlns="http://www.w3.org/2000/svg" xmlns:xlink="http://www.w3.org/1999/xlink">
    <!-- Generator: Sketch 52.5 (67469) - http://www.bohemiancoding.com/sketch -->
    <title>family</title>
    <desc>Created with Sketch.</desc>
    <g id="page" stroke="none" stroke-width="1" fill="none" fill-rule="evenodd">
        <g id="03setting" transform="translate(-35.000000, -487.000000)" fill="#493B32">
            <g id="family" transform="translate(32.000000, 485.000000)">
                <g id="路径-+-路径-+-形状-+-椭圆形蒙版">
                    <path d="M13.787358,3.40637909 C14.1799811,3.30296179 14.5867353,3.25 15,3.25 C17.6233526,3.25 19.75,5.37664744 19.75,8 C19.75,9.06515312 19.3994046,10.0484203 18.8073171,10.8406981 C20.12966,11.5707633 21.0516137,12.9041922 21.2306148,14.4555355 L21.4878358,16.6847837 C21.6619249,18.1935564 20.5799501,19.5577854 19.0711775,19.7318746 C18.9665392,19.7439482 18.8612937,19.75 18.7559612,19.75 L16.8867928,19.75 C16.4477393,20.2823154 15.8091251,20.6509616 15.0691567,20.7331803 C14.9683156,20.7443848 14.8669316,20.75 14.76547,20.75 L6.23453003,20.75 C4.71574697,20.75 3.48453003,19.5187831 3.48453003,18 C3.48453003,17.8985383 3.49014519,17.7971544 3.50134976,17.6963133 L3.85922343,14.4754503 C4.03774492,12.8687569 5.01268782,11.4959807 6.39979042,10.7791471 C5.68029957,9.88067208 5.25,8.74058697 5.25,7.5 C5.25,4.60050506 7.60050506,2.25 10.5,2.25 C11.7443692,2.25 12.8876228,2.68292731 13.787358,3.40637909 Z M14.9730683,4.75010876 C15.465772,5.54985254 15.75,6.49173376 15.75,7.5 C15.75,8.74059317 15.3196961,9.88068348 14.6001988,10.7791605 C14.8534774,10.9100465 15.0929863,11.062782 15.3163998,11.2347954 C16.9628498,11.0757272 18.25,9.68817863 18.25,8 C18.25,6.20507456 16.7949254,4.75 15,4.75 C14.9910172,4.75 14.9820399,4.75003627 14.9730683,4.75010876 Z M13.3757636,11.8930339 C12.5497383,12.4348652 11.561671,12.75 10.5,12.75 C9.43832799,12.75 8.4502598,12.4348646 7.62423405,11.8930324 C6.3962028,12.2705614 5.49409843,13.344653 5.35004903,14.6410975 L4.99217536,17.8619606 C4.98708238,17.9077975 4.98453003,17.9538811 4.98453003,18 C4.98453003,18.6903559 5.54417409,19.25 6.23453003,19.25 L14.76547,19.25 C14.8115889,19.25 14.8576725,19.2474477 14.9035094,19.2423547 C15.5896429,19.1661176 16.0840617,18.5480941 16.0078246,17.8619606 L15.649951,14.6410975 C15.505973,13.3452956 14.6045926,12.2709067 13.3757636,11.8930339 Z M17.5046262,18.25 L18.7559612,18.25 C18.8038396,18.25 18.8516785,18.2472492 18.8992413,18.2417612 C19.5850471,18.1626297 20.0768538,17.5425256 19.9977224,16.8567199 L19.7405014,14.6274716 C19.5988348,13.399694 18.7770338,12.3713154 17.6381261,11.9506374 C17.2801981,12.1901269 16.8879068,12.3822655 16.4702128,12.5180928 C16.8273189,13.1006102 17.061866,13.7652552 17.1407766,14.4754503 L17.4986502,17.6963133 C17.5194882,17.8838546 17.5209472,18.069083 17.5046262,18.25 Z M10.5,11.25 C12.5710678,11.25 14.25,9.57106781 14.25,7.5 C14.25,5.42893219 12.5710678,3.75 10.5,3.75 C8.42893219,3.75 6.75,5.42893219 6.75,7.5 C6.75,9.57106781 8.42893219,11.25 10.5,11.25 Z" id="形状结合" fill-rule="nonzero"></path>
                </g>
            </g>
        </g>
    </g>
</svg>