<?xml version="1.0" encoding="UTF-8"?>
<svg width="24px" height="24px" viewBox="0 0 24 24" version="1.1" xmlns="http://www.w3.org/2000/svg" xmlns:xlink="http://www.w3.org/1999/xlink">
    <!-- Generator: Sketch 52.5 (67469) - http://www.bohemiancoding.com/sketch -->
    <title>home_sel</title>
    <desc>Created with Sketch.</desc>
    <g id="home_sel" stroke="none" stroke-width="1" fill="none" fill-rule="evenodd">
        <g id="编组-2备份-2">
            <circle id="椭圆形" fill="#FDDC3E" cx="12" cy="12" r="5.5"></circle>
            <path d="M4.25158495,12.7216696 L3.99263674,12.7216696 C3.02613843,12.7216696 2.24263674,11.938168 2.24263674,10.9716696 C2.24263674,10.4656555 2.46166562,9.98441196 2.84323184,9.65206047 L10.845836,2.68163872 C11.504372,2.10804128 12.484996,2.10775282 13.1438693,2.68096271 L21.1559862,9.65138446 C21.8851596,10.2857544 21.9620129,11.3911246 21.327643,12.120298 C20.9952802,12.5023308 20.5137313,12.7216696 20.0073578,12.7216696 L19.7422645,12.7216696 L19.7422645,18 C19.7422645,19.5187831 18.5110476,20.75 16.9922645,20.75 L14.9955932,20.75 C14.0290949,20.75 13.2455932,19.9664983 13.2455932,19 L13.2455932,12.9716696 C13.2455932,12.8335985 13.1336644,12.7216696 12.9955932,12.7216696 L11.0017939,12.7216696 C10.8637227,12.7216696 10.7517939,12.8335985 10.7517939,12.9716696 L10.7517939,19 C10.7517939,19.9664983 9.96829221,20.75 9.0017939,20.75 L7.00158495,20.75 C5.48280189,20.75 4.25158495,19.5187831 4.25158495,18 L4.25158495,12.7216696 Z M5.75158495,11.9716696 L5.75158495,18 C5.75158495,18.6903559 6.31122901,19.25 7.00158495,19.25 L9.0017939,19.25 C9.13986509,19.25 9.2517939,19.1380712 9.2517939,19 L9.2517939,12.9716696 C9.2517939,12.0051713 10.0352956,11.2216696 11.0017939,11.2216696 L12.9955932,11.2216696 C13.9620915,11.2216696 14.7455932,12.0051713 14.7455932,12.9716696 L14.7455932,19 C14.7455932,19.1380712 14.857522,19.25 14.9955932,19.25 L16.9922645,19.25 C17.6826204,19.25 18.2422645,18.6903559 18.2422645,18 L18.2422645,11.9716696 C18.2422645,11.5574561 18.5780509,11.2216696 18.9922645,11.2216696 L20.0073578,11.2216696 C20.0796969,11.2216696 20.1484896,11.1903355 20.19597,11.1357594 C20.2865943,11.0315918 20.2756152,10.8736817 20.1714476,10.7830575 L12.1593307,3.81263572 C12.0652059,3.7307486 11.9251168,3.73078981 11.8310402,3.8127323 L3.82843604,10.783154 C3.77392658,10.8306328 3.74263674,10.8993819 3.74263674,10.9716696 C3.74263674,11.1097408 3.85456555,11.2216696 3.99263674,11.2216696 L5.00158495,11.2216696 C5.41579851,11.2216696 5.75158495,11.5574561 5.75158495,11.9716696 Z" id="Rectangle" fill="#493B32" fill-rule="nonzero"></path>
        </g>
    </g>
</svg>