<?xml version="1.0" encoding="UTF-8"?>
<svg width="18px" height="19px" viewBox="0 0 18 19" version="1.1" xmlns="http://www.w3.org/2000/svg" xmlns:xlink="http://www.w3.org/1999/xlink">
    <!-- Generator: Sketch 52.5 (67469) - http://www.bohemiancoding.com/sketch -->
    <title>mail</title>
    <desc>Created with Sketch.</desc>
    <g id="page" stroke="none" stroke-width="1" fill="none" fill-rule="evenodd">
        <g id="03setting" transform="translate(-35.000000, -301.000000)" fill="#493B32">
            <g id="mail" transform="translate(32.000000, 299.000000)">
                <g id="矩形-+-路径蒙版">
                    <path d="M20.6820062,9.39258839 C20.7427426,9.52479584 20.7619812,9.66831221 20.7431396,9.8061678 C20.7476958,9.87057799 20.75,9.93537814 20.75,10.000464 L20.75,18 C20.75,19.5187831 19.5187831,20.75 18,20.75 L6,20.75 C4.48121694,20.75 3.25,19.5187831 3.25,18 L3.25,10.000464 C3.25,9.93537814 3.25230419,9.87057799 3.25686043,9.8061678 C3.23801878,9.66831221 3.25725738,9.52479584 3.31799383,9.39258839 C3.46086796,8.76228117 3.8232095,8.19525122 4.35081675,7.79985172 L10.9505197,2.8539012 C11.5725301,2.38775408 12.4274699,2.38775408 13.0494803,2.8539012 L19.6491833,7.79985172 C20.1767905,8.19525122 20.539132,8.76228117 20.6820062,9.39258839 Z M19.0983346,9.40367065 C19.0135911,9.24770007 18.8955074,9.10951014 18.7496288,9.00018571 L12.1499258,4.05423519 C12.0610671,3.98764275 11.9389329,3.98764275 11.8500742,4.05423519 L5.25037125,9.00018571 C5.10449256,9.10951014 4.98640894,9.24770007 4.90166537,9.40367065 L11.5678312,13.8348829 C11.8085415,13.9948906 12.1914585,13.9948906 12.4321688,13.8348829 L19.0983346,9.40367065 Z M19.25,11.1040212 L13.262545,15.0840728 C12.5187544,15.578494 11.4812456,15.578494 10.737455,15.0840728 L4.75,11.1040212 L4.75,18 C4.75,18.6903559 5.30964406,19.25 6,19.25 L18,19.25 C18.6903559,19.25 19.25,18.6903559 19.25,18 L19.25,11.1040212 Z" id="形状结合" fill-rule="nonzero"></path>
                </g>
            </g>
        </g>
    </g>
</svg>