<?xml version="1.0" encoding="UTF-8"?>
<svg width="18px" height="19px" viewBox="0 0 18 19" version="1.1" xmlns="http://www.w3.org/2000/svg" xmlns:xlink="http://www.w3.org/1999/xlink">
    <!-- Generator: Sketch 52.5 (67469) - http://www.bohemiancoding.com/sketch -->
    <title>password</title>
    <desc>Created with Sketch.</desc>
    <g id="page" stroke="none" stroke-width="1" fill="none" fill-rule="evenodd">
        <g id="03setting" transform="translate(-35.000000, -244.000000)" fill="#493B32">
            <g id="password" transform="translate(32.000000, 242.000000)">
                <g id="矩形-+-路径蒙版">
                    <path d="M6.75,9.25 L17.25,9.25 L17.25,9.07670054 C17.25,6.13272752 14.8973474,3.75 12,3.75 C9.10265257,3.75 6.75,6.13272752 6.75,9.07670054 L6.75,9.25 Z M18.75,9.35351624 C19.9042524,9.67998069 20.75,10.7412229 20.75,12 L20.75,18 C20.75,19.5187831 19.5187831,20.75 18,20.75 L6,20.75 C4.48121694,20.75 3.25,19.5187831 3.25,18 L3.25,12 C3.25,10.7412229 4.0957476,9.67998069 5.25,9.35351624 L5.25,9.07670054 C5.25,5.30853549 8.26993044,2.25 12,2.25 C15.7300696,2.25 18.75,5.30853549 18.75,9.07670054 L18.75,9.35351624 Z M6,10.75 C5.30964406,10.75 4.75,11.3096441 4.75,12 L4.75,18 C4.75,18.6903559 5.30964406,19.25 6,19.25 L18,19.25 C18.6903559,19.25 19.25,18.6903559 19.25,18 L19.25,12 C19.25,11.3096441 18.6903559,10.75 18,10.75 L6,10.75 Z" id="形状结合" fill-rule="nonzero"></path>
                </g>
            </g>
        </g>
    </g>
</svg>