<?xml version="1.0" encoding="UTF-8"?>
<svg width="18px" height="18px" viewBox="0 0 18 18" version="1.1" xmlns="http://www.w3.org/2000/svg" xmlns:xlink="http://www.w3.org/1999/xlink">
    <!-- Generator: Sketch 52.5 (67469) - http://www.bohemiancoding.com/sketch -->
    <title>pay</title>
    <desc>Created with Sketch.</desc>
    <g id="page" stroke="none" stroke-width="1" fill="none" fill-rule="evenodd">
        <g id="03setting" transform="translate(-35.000000, -359.000000)" fill="#493B32">
            <g id="pay" transform="translate(32.000000, 356.000000)">
                <g id="路径-+-矩形备份-6蒙版">
                    <path d="M19.75,14.1214189 L19.75,18 C19.75,19.5307885 18.4437019,20.75 16.8571429,20.75 L6.14285714,20.75 C4.55629807,20.75 3.25,19.5307885 3.25,18 L3.25,6 C3.25,4.46921153 4.55629807,3.25 6.14285714,3.25 L16.8571429,3.25 C18.4437019,3.25 19.75,4.46921153 19.75,6 L19.75,8.87858105 C20.3607517,9.38297688 20.75,10.1460315 20.75,11 L20.75,12 C20.75,12.8539685 20.3607517,13.6170231 19.75,14.1214189 Z M18.25,8.26121075 L18.25,6 C18.25,5.32164947 17.6375184,4.75 16.8571429,4.75 L6.14285714,4.75 C5.36248157,4.75 4.75,5.32164947 4.75,6 L4.75,18 C4.75,18.6783505 5.36248157,19.25 6.14285714,19.25 L16.8571429,19.25 C17.6375184,19.25 18.25,18.6783505 18.25,18 L18.25,14.7387892 C18.1676595,14.7462093 18.0842724,14.75 18,14.75 L12,14.75 C10.4812169,14.75 9.25,13.5187831 9.25,12 L9.25,11 C9.25,9.48121694 10.4812169,8.25 12,8.25 L18,8.25 C18.0842724,8.25 18.1676595,8.25379065 18.25,8.26121075 Z M12,9.75 C11.3096441,9.75 10.75,10.3096441 10.75,11 L10.75,12 C10.75,12.6903559 11.3096441,13.25 12,13.25 L18,13.25 C18.6903559,13.25 19.25,12.6903559 19.25,12 L19.25,11 C19.25,10.3096441 18.6903559,9.75 18,9.75 L12,9.75 Z" id="形状结合" fill-rule="nonzero"></path>
                </g>
            </g>
        </g>
    </g>
</svg>