<?xml version="1.0" encoding="UTF-8"?>
<svg width="24px" height="24px" viewBox="0 0 24 24" version="1.1" xmlns="http://www.w3.org/2000/svg" xmlns:xlink="http://www.w3.org/1999/xlink">
    <!-- Generator: Sketch 52.5 (67469) - http://www.bohemiancoding.com/sketch -->
    <title>QR_def</title>
    <desc>Created with Sketch.</desc>
    <g id="QR_def" stroke="none" stroke-width="1" fill="none" fill-rule="evenodd">
        <g id="形状结合" fill="#D0D0D5" fill-rule="nonzero">
            <path d="M15,4.75 C14.5857864,4.75 14.25,4.41421356 14.25,4 C14.25,3.58578644 14.5857864,3.25 15,3.25 L18,3.25 C19.5187831,3.25 20.75,4.48121694 20.75,6 L20.75,9 C20.75,9.41421356 20.4142136,9.75 20,9.75 C19.5857864,9.75 19.25,9.41421356 19.25,9 L19.25,6 C19.25,5.30964406 18.6903559,4.75 18,4.75 L15,4.75 Z M19.25,15 C19.25,14.5857864 19.5857864,14.25 20,14.25 C20.4142136,14.25 20.75,14.5857864 20.75,15 L20.75,18 C20.75,19.5187831 19.5187831,20.75 18,20.75 L15,20.75 C14.5857864,20.75 14.25,20.4142136 14.25,20 C14.25,19.5857864 14.5857864,19.25 15,19.25 L18,19.25 C18.6903559,19.25 19.25,18.6903559 19.25,18 L19.25,15 Z M9,19.25 C9.41421356,19.25 9.75,19.5857864 9.75,20 C9.75,20.4142136 9.41421356,20.75 9,20.75 L6,20.75 C4.48121694,20.75 3.25,19.5187831 3.25,18 L3.25,15 C3.25,14.5857864 3.58578644,14.25 4,14.25 C4.41421356,14.25 4.75,14.5857864 4.75,15 L4.75,18 C4.75,18.6903559 5.30964406,19.25 6,19.25 L9,19.25 Z M4.75,9 C4.75,9.41421356 4.41421356,9.75 4,9.75 C3.58578644,9.75 3.25,9.41421356 3.25,9 L3.25,6 C3.25,4.48121694 4.48121694,3.25 6,3.25 L9,3.25 C9.41421356,3.25 9.75,3.58578644 9.75,4 C9.75,4.41421356 9.41421356,4.75 9,4.75 L6,4.75 C5.30964406,4.75 4.75,5.30964406 4.75,6 L4.75,9 Z M4,12.75 C3.58578644,12.75 3.25,12.4142136 3.25,12 C3.25,11.5857864 3.58578644,11.25 4,11.25 L20,11.25 C20.4142136,11.25 20.75,11.5857864 20.75,12 C20.75,12.4142136 20.4142136,12.75 20,12.75 L4,12.75 Z"></path>
        </g>
    </g>
</svg>