<?xml version="1.0" encoding="UTF-8"?>
<svg width="24px" height="24px" viewBox="0 0 24 24" version="1.1" xmlns="http://www.w3.org/2000/svg" xmlns:xlink="http://www.w3.org/1999/xlink">
    <!-- Generator: Sketch 52.5 (67469) - http://www.bohemiancoding.com/sketch -->
    <title>setting_sel</title>
    <desc>Created with Sketch.</desc>
    <g id="setting_sel" stroke="none" stroke-width="1" fill="none" fill-rule="evenodd">
        <g id="编组-2备份">
            <path d="M12.8944272,6.78885438 L17.2763932,15.5527864 C17.5233825,16.0467649 17.3231581,16.6474379 16.8291796,16.8944272 C16.6903242,16.9638549 16.5372111,17 16.381966,17 L7.61803399,17 C7.06574924,17 6.61803399,16.5522847 6.61803399,16 C6.61803399,15.8447549 6.65417908,15.6916418 6.7236068,15.5527864 L11.1055728,6.78885438 C11.3525621,6.29487588 11.9532351,6.09465154 12.4472136,6.34164079 C12.640741,6.43840449 12.7976635,6.59532698 12.8944272,6.78885438 Z" id="三角形" fill="#FDDC3E"></path>
            <path d="M16.6689937,11.2018838 C18.0843095,11.6222287 19.2553041,12.6709077 19.7926223,14.0821637 L20.8214694,16.7844105 C21.3629092,18.2064914 20.6313698,19.7916249 19.1875305,20.3249052 C18.8740444,20.440691 18.5419705,20.5 18.2071672,20.5 L5.79207604,20.5 C4.25005502,20.5 3,19.2687831 3,17.75 C3,17.4202421 3.0602165,17.0931724 3.17777378,16.7844105 L4.20662089,14.0821637 C4.74393916,12.6709077 5.91493377,11.6222287 7.33024954,11.2018838 C6.59649331,10.2405516 6.16164443,9.04529274 6.16164443,7.75 C6.16164443,4.57436269 8.77539585,2 11.9996216,2 C15.2238474,2 17.8375988,4.57436269 17.8375988,7.75 C17.8375988,9.04529274 17.4027499,10.2405516 16.6689937,11.2018838 Z M8.70871785,12.5000271 C7.33870066,12.5055117 6.11398225,13.3445181 5.63260394,14.6088488 L4.60375683,17.3110957 C4.5503217,17.451442 4.52295057,17.6001101 4.52295057,17.75 C4.52295057,18.4403559 5.0911574,19 5.79207604,19 L18.2071672,19 C18.3593505,19 18.5102932,18.9730413 18.6527869,18.9204115 C19.3090775,18.6780113 19.6415954,17.9574961 19.3954864,17.3110957 L18.3666393,14.6088488 C17.885261,13.3445181 16.6605426,12.5055117 15.2905254,12.5000271 C14.3535447,13.1309819 13.2203369,13.5 11.9996216,13.5 C10.7789063,13.5 9.64569853,13.1309819 8.70871785,12.5000271 Z M11.9996216,12 C14.382745,12 16.3146482,10.0972102 16.3146482,7.75 C16.3146482,5.40278981 14.382745,3.5 11.9996216,3.5 C9.61649822,3.5 7.684595,5.40278981 7.684595,7.75 C7.684595,10.0972102 9.61649822,12 11.9996216,12 Z" id="形状结合" fill="#493B32" fill-rule="nonzero"></path>
        </g>
    </g>
</svg>