<?xml version="1.0" encoding="UTF-8"?>
<svg width="24px" height="24px" viewBox="0 0 24 24" version="1.1" xmlns="http://www.w3.org/2000/svg" xmlns:xlink="http://www.w3.org/1999/xlink">
    <!-- Generator: Sketch 52.5 (67469) - http://www.bohemiancoding.com/sketch -->
    <title>setting_def</title>
    <desc>Created with Sketch.</desc>
    <g id="setting_def" stroke="none" stroke-width="1" fill="none" fill-rule="evenodd">
        <g id="编组-2备份" fill="#D0D0D5" fill-rule="nonzero">
            <path d="M16.4630046,11.4518838 C17.8569918,11.8722287 19.0103398,12.9209077 19.5395608,14.3321637 L20.5529034,17.0344105 C21.0861837,18.4564914 20.3656685,20.0416249 18.9435876,20.5749052 C18.6348257,20.690691 18.307756,20.75 17.9779981,20.75 L5.75,20.75 C4.23121694,20.75 3,19.5187831 3,18 C3,17.6702421 3.05930905,17.3431724 3.17509476,17.0344105 L4.18843734,14.3321637 C4.71765833,12.9209077 5.87100629,11.8722287 7.26499352,11.4518838 C6.54229485,10.4905516 6.11399906,9.29529274 6.11399906,8 C6.11399906,4.82436269 8.68836175,2.25 11.8639991,2.25 C15.0396364,2.25 17.6139991,4.82436269 17.6139991,8 C17.6139991,9.29529274 17.1857033,10.4905516 16.4630046,11.4518838 Z M8.62268858,12.7500271 C7.27331729,12.7555117 6.06705514,13.5945181 5.59293111,14.8588488 L4.57958853,17.5610957 C4.52695866,17.701442 4.5,17.8501101 4.5,18 C4.5,18.6903559 5.05964406,19.25 5.75,19.25 L17.9779981,19.25 C18.1278881,19.25 18.2765561,19.2230413 18.4169024,19.1704115 C19.0633028,18.9280113 19.3908098,18.2074961 19.1484096,17.5610957 L18.135067,14.8588488 C17.660943,13.5945181 16.4546808,12.7555117 15.1053095,12.7500271 C14.182449,13.3809819 13.0663184,13.75 11.8639991,13.75 C10.6616797,13.75 9.54554915,13.3809819 8.62268858,12.7500271 Z M11.8639991,12.25 C14.2112093,12.25 16.1139991,10.3472102 16.1139991,8 C16.1139991,5.65278981 14.2112093,3.75 11.8639991,3.75 C9.51678888,3.75 7.61399906,5.65278981 7.61399906,8 C7.61399906,10.3472102 9.51678888,12.25 11.8639991,12.25 Z" id="形状结合"></path>
        </g>
    </g>
</svg>