<?xml version="1.0" encoding="UTF-8"?>
<svg width="20px" height="18px" viewBox="0 0 20 18" version="1.1" xmlns="http://www.w3.org/2000/svg" xmlns:xlink="http://www.w3.org/1999/xlink">
    <!-- Generator: Sketch 52.5 (67469) - http://www.bohemiancoding.com/sketch -->
    <title>sns</title>
    <desc>Created with Sketch.</desc>
    <g id="page" stroke="none" stroke-width="1" fill="none" fill-rule="evenodd">
        <g id="03setting" transform="translate(-34.000000, -431.000000)" fill="#493B32">
            <g id="sns" transform="translate(32.000000, 428.000000)">
                <g id="路径-+-矩形蒙版">
                    <path d="M17.75,12.000873 L17.75,13 C17.75,14.5187831 16.5187831,15.75 15,15.75 L8.74871755,15.75 L8.74871755,18 C8.74871755,18.6903559 9.30836162,19.25 9.99871755,19.25 L19.5788852,19.25 L18.3792262,17.4921011 C18.2942,17.3675096 18.2487176,17.2201752 18.2487176,17.0693359 L18.2487176,13 C18.2487176,12.5916216 18.0528821,12.2289831 17.75,12.000873 Z M17.75,10.3538793 C18.9035964,10.6807669 19.7487176,11.7416891 19.7487176,13 L19.7487176,16.8378092 L21.6182089,19.5772348 C21.9579487,20.0750663 21.6014275,20.75 20.9987176,20.75 L9.99871755,20.75 C8.47993449,20.75 7.24871755,19.5187831 7.24871755,18 L7.24871755,15.75 L3,15.75 C2.39729001,15.75 2.04076886,15.0750663 2.38050861,14.5772348 L4.25,11.8378092 L4.25,6 C4.25,4.48121694 5.48121694,3.25 7,3.25 L15,3.25 C16.5187831,3.25 17.75,4.48121694 17.75,6 L17.75,10.3538793 Z M4.41983232,14.25 L15,14.25 C15.6903559,14.25 16.25,13.6903559 16.25,13 L16.25,6 C16.25,5.30964406 15.6903559,4.75 15,4.75 L7,4.75 C6.30964406,4.75 5.75,5.30964406 5.75,6 L5.75,12.0693359 C5.75,12.2201752 5.70451753,12.3675096 5.61949139,12.4921011 L4.41983232,14.25 Z" id="形状结合" fill-rule="nonzero"></path>
                </g>
            </g>
        </g>
    </g>
</svg>